<mxfile host="app.diagrams.net" modified="2023-07-18T12:48:34.277Z" agent="Mozilla/5.0 (Windows NT 10.0; Win64; x64) AppleWebKit/537.36 (KHTML, like Gecko) Chrome/114.0.0.0 Safari/537.36" etag="6meoxoRqQCHLAR0L_sxP" version="21.6.2" type="device">
  <diagram name="ページ1" id="gD9bwsdnX0tpoLs3foQK">
    <mxGraphModel dx="2308" dy="799" grid="1" gridSize="10" guides="1" tooltips="1" connect="1" arrows="1" fold="1" page="1" pageScale="1" pageWidth="827" pageHeight="1169" background="#ffffff" math="0" shadow="0">
      <root>
        <mxCell id="0" />
        <mxCell id="1" parent="0" />
        <mxCell id="kHD_KdrmIakFp8jRkBLt-32" value="" style="rounded=0;whiteSpace=wrap;html=1;strokeColor=none;" parent="1" vertex="1">
          <mxGeometry x="877" y="361.5" width="43" height="80" as="geometry" />
        </mxCell>
        <mxCell id="kHD_KdrmIakFp8jRkBLt-1" value="&lt;pre style=&quot;font-size: 20px; line-height: 36px; border: none; padding: 2px 0.14em 2px 0px; position: relative; margin-top: -2px; margin-bottom: -2px; resize: none; font-family: inherit; overflow: hidden; width: 270px; overflow-wrap: break-word; color: rgb(32, 33, 36);&quot; id=&quot;tw-target-text&quot; data-placeholder=&quot;翻訳&quot; class=&quot;tw-data-text tw-text-large tw-ta&quot;&gt;raspberry pi&lt;/pre&gt;" style="rounded=1;whiteSpace=wrap;html=1;fillColor=#f8cecc;strokeColor=#b85450;align=center;horizontal=1;verticalAlign=top;fontSize=20;" parent="1" vertex="1">
          <mxGeometry x="-80" y="128" width="700" height="592" as="geometry" />
        </mxCell>
        <mxCell id="kHD_KdrmIakFp8jRkBLt-11" value="GPIO制御" style="edgeStyle=orthogonalEdgeStyle;rounded=0;orthogonalLoop=1;jettySize=auto;html=1;entryX=0;entryY=0.5;entryDx=0;entryDy=0;exitX=0.75;exitY=1;exitDx=0;exitDy=0;" parent="1" source="kHD_KdrmIakFp8jRkBLt-3" target="kHD_KdrmIakFp8jRkBLt-10" edge="1">
          <mxGeometry x="0.3634" relative="1" as="geometry">
            <mxPoint as="offset" />
          </mxGeometry>
        </mxCell>
        <mxCell id="kHD_KdrmIakFp8jRkBLt-14" style="edgeStyle=orthogonalEdgeStyle;rounded=0;orthogonalLoop=1;jettySize=auto;html=1;exitX=1;exitY=0.5;exitDx=0;exitDy=0;entryX=0;entryY=0.5;entryDx=0;entryDy=0;endArrow=none;endFill=0;startArrow=classic;startFill=1;" parent="1" source="kHD_KdrmIakFp8jRkBLt-31" target="kHD_KdrmIakFp8jRkBLt-13" edge="1">
          <mxGeometry relative="1" as="geometry">
            <mxPoint x="319.99999999999955" y="250.5" as="sourcePoint" />
          </mxGeometry>
        </mxCell>
        <mxCell id="kHD_KdrmIakFp8jRkBLt-45" value="カメラ制御" style="edgeStyle=orthogonalEdgeStyle;rounded=0;orthogonalLoop=1;jettySize=auto;html=1;exitX=0.5;exitY=1;exitDx=0;exitDy=0;entryX=0;entryY=0.5;entryDx=0;entryDy=0;entryPerimeter=0;" parent="1" source="kHD_KdrmIakFp8jRkBLt-3" target="kHD_KdrmIakFp8jRkBLt-46" edge="1">
          <mxGeometry x="0.4291" relative="1" as="geometry">
            <mxPoint x="509.99999999999955" y="640" as="targetPoint" />
            <mxPoint as="offset" />
          </mxGeometry>
        </mxCell>
        <mxCell id="kHD_KdrmIakFp8jRkBLt-3" value="Main Application" style="rounded=0;whiteSpace=wrap;html=1;fillColor=#fff2cc;strokeColor=#d6b656;" parent="1" vertex="1">
          <mxGeometry x="200" y="369.5" width="120" height="60" as="geometry" />
        </mxCell>
        <mxCell id="kHD_KdrmIakFp8jRkBLt-7" style="edgeStyle=orthogonalEdgeStyle;rounded=0;orthogonalLoop=1;jettySize=auto;html=1;exitX=1.004;exitY=0.527;exitDx=0;exitDy=0;exitPerimeter=0;entryX=0.5;entryY=1;entryDx=0;entryDy=0;entryPerimeter=0;" parent="1" source="kHD_KdrmIakFp8jRkBLt-4" target="kHD_KdrmIakFp8jRkBLt-6" edge="1">
          <mxGeometry relative="1" as="geometry" />
        </mxCell>
        <mxCell id="kHD_KdrmIakFp8jRkBLt-4" value="ステッピングモーター" style="shape=cube;html=1;boundedLbl=1;backgroundOutline=1;darkOpacity=0.05;darkOpacity2=0.1;fillColor=#d5e8d4;strokeColor=#82b366;fontStyle=1;verticalAlign=top;labelPosition=center;verticalLabelPosition=bottom;align=center;" parent="1" vertex="1">
          <mxGeometry x="680" y="514" width="105" height="70" as="geometry" />
        </mxCell>
        <mxCell id="kHD_KdrmIakFp8jRkBLt-6" value="穴あきPETボトル in 餌" style="shape=cylinder3;whiteSpace=wrap;boundedLbl=1;backgroundOutline=1;size=15;direction=south;fillColor=#b1ddf0;strokeColor=#10739e;verticalAlign=top;fontStyle=1;html=1;labelBorderColor=none;labelBackgroundColor=none;labelPosition=center;verticalLabelPosition=bottom;align=center;" parent="1" vertex="1">
          <mxGeometry x="830" y="523" width="180" height="56" as="geometry" />
        </mxCell>
        <mxCell id="kHD_KdrmIakFp8jRkBLt-8" value="" style="rounded=0;whiteSpace=wrap;html=1;" parent="1" vertex="1">
          <mxGeometry x="885" y="523" width="63.5" height="15" as="geometry" />
        </mxCell>
        <mxCell id="kHD_KdrmIakFp8jRkBLt-58" style="edgeStyle=orthogonalEdgeStyle;rounded=0;orthogonalLoop=1;jettySize=auto;html=1;" parent="1" source="kHD_KdrmIakFp8jRkBLt-10" target="kHD_KdrmIakFp8jRkBLt-4" edge="1">
          <mxGeometry relative="1" as="geometry" />
        </mxCell>
        <mxCell id="kHD_KdrmIakFp8jRkBLt-10" value="&lt;b&gt;GPIO&lt;/b&gt;" style="rounded=0;whiteSpace=wrap;html=1;fillColor=#eeeeee;strokeColor=#36393d;verticalAlign=top;labelPosition=center;verticalLabelPosition=bottom;align=center;" parent="1" vertex="1">
          <mxGeometry x="580" y="510" width="40" height="78" as="geometry" />
        </mxCell>
        <mxCell id="kHD_KdrmIakFp8jRkBLt-19" value="TCP" style="edgeStyle=orthogonalEdgeStyle;rounded=0;orthogonalLoop=1;jettySize=auto;html=1;entryX=0;entryY=0.5;entryDx=0;entryDy=0;endArrow=none;endFill=0;startArrow=classic;startFill=1;" parent="1" source="kHD_KdrmIakFp8jRkBLt-13" target="kHD_KdrmIakFp8jRkBLt-18" edge="1">
          <mxGeometry relative="1" as="geometry" />
        </mxCell>
        <mxCell id="kHD_KdrmIakFp8jRkBLt-37" value="API Call" style="rounded=0;orthogonalLoop=1;jettySize=auto;html=1;entryX=0.75;entryY=0;entryDx=0;entryDy=0;exitX=0.5;exitY=1;exitDx=0;exitDy=0;" parent="1" source="kHD_KdrmIakFp8jRkBLt-13" target="kHD_KdrmIakFp8jRkBLt-3" edge="1">
          <mxGeometry relative="1" as="geometry" />
        </mxCell>
        <mxCell id="kHD_KdrmIakFp8jRkBLt-13" value="nginx" style="rounded=0;whiteSpace=wrap;html=1;fillColor=#dae8fc;strokeColor=#6c8ebf;" parent="1" vertex="1">
          <mxGeometry x="506" y="220.5" width="60" height="60" as="geometry" />
        </mxCell>
        <mxCell id="kHD_KdrmIakFp8jRkBLt-21" style="edgeStyle=orthogonalEdgeStyle;rounded=0;orthogonalLoop=1;jettySize=auto;html=1;exitX=1;exitY=0.5;exitDx=0;exitDy=0;entryX=0;entryY=0.5;entryDx=0;entryDy=0;endArrow=none;endFill=0;entryPerimeter=0;startArrow=classic;startFill=1;" parent="1" source="kHD_KdrmIakFp8jRkBLt-18" target="kHD_KdrmIakFp8jRkBLt-40" edge="1">
          <mxGeometry relative="1" as="geometry">
            <mxPoint x="829.9999999999995" y="250" as="targetPoint" />
          </mxGeometry>
        </mxCell>
        <mxCell id="kHD_KdrmIakFp8jRkBLt-18" value="&lt;b&gt;Wifi&lt;/b&gt;" style="image;html=1;image=img/lib/clip_art/networking/Wireless_Router_128x128.png" parent="1" vertex="1">
          <mxGeometry x="692.5" y="210.5" width="80" height="80" as="geometry" />
        </mxCell>
        <mxCell id="kHD_KdrmIakFp8jRkBLt-25" value="API Call" style="edgeStyle=orthogonalEdgeStyle;rounded=0;orthogonalLoop=1;jettySize=auto;html=1;exitX=0;exitY=0.5;exitDx=0;exitDy=0;entryX=1;entryY=0.5;entryDx=0;entryDy=0;" parent="1" source="kHD_KdrmIakFp8jRkBLt-24" target="kHD_KdrmIakFp8jRkBLt-3" edge="1">
          <mxGeometry relative="1" as="geometry">
            <mxPoint x="269.99999999999955" y="525" as="targetPoint" />
          </mxGeometry>
        </mxCell>
        <mxCell id="kHD_KdrmIakFp8jRkBLt-24" value="AWS&lt;br&gt;SDK" style="rounded=0;whiteSpace=wrap;html=1;fillColor=#dae8fc;strokeColor=#6c8ebf;" parent="1" vertex="1">
          <mxGeometry x="508" y="371.5" width="60" height="60" as="geometry" />
        </mxCell>
        <mxCell id="kHD_KdrmIakFp8jRkBLt-28" value="MQTT" style="rounded=0;orthogonalLoop=1;jettySize=auto;html=1;entryX=1;entryY=0.5;entryDx=0;entryDy=0;exitX=0;exitY=0.75;exitDx=0;exitDy=0;" parent="1" source="kHD_KdrmIakFp8jRkBLt-18" target="kHD_KdrmIakFp8jRkBLt-24" edge="1">
          <mxGeometry relative="1" as="geometry" />
        </mxCell>
        <mxCell id="LmMEJ_1BgSZ-jEbsfKo_-1" style="edgeStyle=orthogonalEdgeStyle;rounded=0;orthogonalLoop=1;jettySize=auto;html=1;" edge="1" parent="1" source="kHD_KdrmIakFp8jRkBLt-27">
          <mxGeometry relative="1" as="geometry">
            <mxPoint x="733.7499999999995" y="320" as="targetPoint" />
          </mxGeometry>
        </mxCell>
        <mxCell id="kHD_KdrmIakFp8jRkBLt-27" value="AWS" style="ellipse;shape=cloud;whiteSpace=wrap;html=1;fillColor=#d5e8d4;strokeColor=#82b366;fontStyle=1;verticalAlign=top;labelPosition=center;verticalLabelPosition=bottom;align=center;" parent="1" vertex="1">
          <mxGeometry x="670" y="361.5" width="127.5" height="80" as="geometry" />
        </mxCell>
        <mxCell id="kHD_KdrmIakFp8jRkBLt-33" style="edgeStyle=orthogonalEdgeStyle;rounded=0;orthogonalLoop=1;jettySize=auto;html=1;exitX=0.25;exitY=0.5;exitDx=0;exitDy=0;exitPerimeter=0;" parent="1" source="kHD_KdrmIakFp8jRkBLt-30" edge="1">
          <mxGeometry relative="1" as="geometry">
            <mxPoint x="800" y="401.5" as="targetPoint" />
          </mxGeometry>
        </mxCell>
        <mxCell id="kHD_KdrmIakFp8jRkBLt-30" value="&lt;b&gt;Application&lt;br&gt;(グローバルネットワーク)&lt;br&gt;&lt;/b&gt;" style="shape=image;html=1;verticalAlign=top;verticalLabelPosition=bottom;labelBackgroundColor=#ffffff;imageAspect=0;image=https://cdn4.iconfinder.com/data/icons/ionicons/512/icon-iphone-128.png" parent="1" vertex="1">
          <mxGeometry x="840" y="346.5" width="120" height="110" as="geometry" />
        </mxCell>
        <mxCell id="kHD_KdrmIakFp8jRkBLt-35" value="API Call" style="edgeStyle=orthogonalEdgeStyle;rounded=0;orthogonalLoop=1;jettySize=auto;html=1;" parent="1" source="kHD_KdrmIakFp8jRkBLt-31" target="kHD_KdrmIakFp8jRkBLt-3" edge="1">
          <mxGeometry relative="1" as="geometry" />
        </mxCell>
        <mxCell id="kHD_KdrmIakFp8jRkBLt-31" value="Front End" style="rounded=0;whiteSpace=wrap;html=1;fillColor=#fff2cc;strokeColor=#d6b656;" parent="1" vertex="1">
          <mxGeometry x="200" y="221" width="120" height="60" as="geometry" />
        </mxCell>
        <mxCell id="kHD_KdrmIakFp8jRkBLt-40" value="&lt;b&gt;&lt;font color=&quot;#000000&quot;&gt;WebView&lt;br&gt;(ローカルネットワーク)&lt;br&gt;&lt;/font&gt;&lt;/b&gt;" style="fontColor=#0066CC;verticalAlign=top;verticalLabelPosition=bottom;labelPosition=center;align=center;html=1;outlineConnect=0;fillColor=#CCCCCC;strokeColor=#000000;gradientColor=none;gradientDirection=north;strokeWidth=2;shape=mxgraph.networks.pc;" parent="1" vertex="1">
          <mxGeometry x="847" y="215" width="100" height="70" as="geometry" />
        </mxCell>
        <mxCell id="kHD_KdrmIakFp8jRkBLt-41" value="" style="shape=cylinder3;whiteSpace=wrap;boundedLbl=1;backgroundOutline=1;size=15;direction=south;verticalAlign=top;fontStyle=1;html=1;labelBorderColor=none;labelBackgroundColor=none;labelPosition=center;verticalLabelPosition=bottom;align=center;fillColor=#b1ddf0;strokeColor=#10739e;" parent="1" vertex="1">
          <mxGeometry x="988" y="535" width="44" height="34" as="geometry" />
        </mxCell>
        <mxCell id="kHD_KdrmIakFp8jRkBLt-46" value="&lt;b&gt;Camera&lt;/b&gt;" style="shape=mxgraph.signs.tech.video_camera;html=1;pointerEvents=1;fillColor=#000000;strokeColor=none;verticalLabelPosition=bottom;verticalAlign=top;align=center;" parent="1" vertex="1">
          <mxGeometry x="570" y="630" width="79" height="40" as="geometry" />
        </mxCell>
        <mxCell id="kHD_KdrmIakFp8jRkBLt-49" value="" style="ellipse;whiteSpace=wrap;html=1;aspect=fixed;fillColor=#eeeeee;strokeColor=#36393d;" parent="1" vertex="1">
          <mxGeometry x="586" y="517" width="13" height="13" as="geometry" />
        </mxCell>
        <mxCell id="kHD_KdrmIakFp8jRkBLt-51" value="" style="ellipse;whiteSpace=wrap;html=1;aspect=fixed;fillColor=#eeeeee;strokeColor=#36393d;" parent="1" vertex="1">
          <mxGeometry x="603" y="517" width="13" height="13" as="geometry" />
        </mxCell>
        <mxCell id="kHD_KdrmIakFp8jRkBLt-52" value="" style="ellipse;whiteSpace=wrap;html=1;aspect=fixed;fillColor=#eeeeee;strokeColor=#36393d;" parent="1" vertex="1">
          <mxGeometry x="586" y="534" width="13" height="13" as="geometry" />
        </mxCell>
        <mxCell id="kHD_KdrmIakFp8jRkBLt-53" value="" style="ellipse;whiteSpace=wrap;html=1;aspect=fixed;fillColor=#eeeeee;strokeColor=#36393d;" parent="1" vertex="1">
          <mxGeometry x="603" y="534" width="13" height="13" as="geometry" />
        </mxCell>
        <mxCell id="kHD_KdrmIakFp8jRkBLt-54" value="" style="ellipse;whiteSpace=wrap;html=1;aspect=fixed;fillColor=#eeeeee;strokeColor=#36393d;" parent="1" vertex="1">
          <mxGeometry x="586" y="550" width="13" height="13" as="geometry" />
        </mxCell>
        <mxCell id="kHD_KdrmIakFp8jRkBLt-55" value="" style="ellipse;whiteSpace=wrap;html=1;aspect=fixed;fillColor=#eeeeee;strokeColor=#36393d;" parent="1" vertex="1">
          <mxGeometry x="603" y="550" width="13" height="13" as="geometry" />
        </mxCell>
        <mxCell id="kHD_KdrmIakFp8jRkBLt-56" value="" style="ellipse;whiteSpace=wrap;html=1;aspect=fixed;fillColor=#eeeeee;strokeColor=#36393d;" parent="1" vertex="1">
          <mxGeometry x="586" y="566" width="13" height="13" as="geometry" />
        </mxCell>
        <mxCell id="kHD_KdrmIakFp8jRkBLt-57" value="" style="ellipse;whiteSpace=wrap;html=1;aspect=fixed;fillColor=#eeeeee;strokeColor=#36393d;" parent="1" vertex="1">
          <mxGeometry x="603" y="566" width="13" height="13" as="geometry" />
        </mxCell>
      </root>
    </mxGraphModel>
  </diagram>
</mxfile>
